<?xml version="1.0" encoding="UTF-8" standalone="no"?><!DOCTYPE svg PUBLIC "-//W3C//DTD SVG 1.1//EN" "http://www.w3.org/Graphics/SVG/1.1/DTD/svg11.dtd"><svg width="100%" height="100%" viewBox="0 0 512 512" version="1.1" xmlns="http://www.w3.org/2000/svg" xmlns:xlink="http://www.w3.org/1999/xlink" xml:space="preserve" xmlns:serif="http://www.serif.com/" style="fill-rule:evenodd;clip-rule:evenodd;stroke-linejoin:round;stroke-miterlimit:2;"><g><circle cx="256.422" cy="256" r="240.879" style="fill:#fff;"/><path d="M244.567,56.515l56.648,-30.662l102.355,46.709l-4.858,17.249l-116.858,-6.432l-37.287,-26.864Z" style="fill:url(#_Linear1);"/><path d="M215.004,25.853l88.728,79.65l66.251,51.434l43.766,36.952l37.951,36.585l27.685,32.327l12.631,21.472l-13.871,42.022l-9.966,13.765l-22.971,-24.384l-68.412,-31.403l-70.889,-21.472l-90.903,-18.673l-49.437,-31.762l-43.444,-30.617l-36.56,-39.294l-13.376,-30.46l36.953,-39.433l56.427,-35.36l49.437,-11.349Z" style="fill:url(#_Linear2);"/><path d="M58.205,390.101l37.282,11.522l31.63,10.244l37.452,13.991l58.05,8.223l61.583,0l21.705,5.992l10.387,10.986l-44.269,26.763l-33.892,14.185l-45.6,-7.491l-27.964,-13.674l-37.452,-13.79l-26.466,-22.971l-28.464,-22.214l-13.982,-21.766Z" style="fill:url(#_Linear3);"/><path d="M72.187,110.996l13.376,30.96l17.584,25.013l23.47,23.425l25.468,16.479l35.165,23.601l57.317,13.654l44.342,11.872l60.422,19.285l34.736,11.985l46.161,20.473l27.109,27.964l14.337,22.472l-23.47,31.922l-17.976,30.497l-26.658,24.247l-31.767,18.73l-27.965,12.574l-19.77,-10.614l-28.548,-44.937l-32.792,-30.497l-25.225,-23.933l-25.495,-14.98l-41.946,-24.893l-38.951,-27.778l-27.964,-23.232l-26.965,-19.285l-17.977,-25.526l-19.12,-8.62l-11.341,-31.46l17.478,-39.449l26.965,-39.949Z" style="fill:url(#_Linear4);"/><path d="M363.656,32.624c-123.285,-59.417 -271.615,-7.564 -331.032,115.72c-59.417,123.285 -7.564,271.615 115.72,331.032c123.285,59.417 271.615,7.564 331.032,-115.72c59.417,-123.285 7.564,-271.615 -115.72,-331.032Zm-58.588,411.181c-26.084,6.406 -106.765,19.598 -206.359,-28.686c17.123,16.935 37.283,31.364 60.171,42.395c23.468,11.31 47.941,18.151 72.44,20.859c43.589,-14.957 65.987,-29.069 73.748,-34.568Zm-271.819,-208.778c-4.263,45.527 5.664,91.025 27.615,130.303c0.296,0.164 0.589,0.343 0.876,0.535c101.234,67.922 189.069,63.131 225.877,56.759c-23.201,-23.925 -57.772,-49.922 -107.066,-79.475c-68.28,-40.934 -115.129,-77.487 -147.302,-108.122Zm284.843,229.281c-3.918,2.717 -9.84,6.506 -18.076,10.986c6.973,-1.406 13.87,-3.142 20.672,-5.199c-0.794,-1.919 -1.658,-3.847 -2.596,-5.787Zm-251.726,-326.994c-4.302,6.888 -8.273,14.081 -11.88,21.566c-7.349,15.249 -12.811,30.921 -16.477,46.745c31.126,31.949 79.625,71.51 155.02,116.71c61.133,36.65 100.746,68.972 125.11,98.475c0.924,0.831 1.728,1.811 2.37,2.921c10.531,13.216 18.004,25.868 22.997,38.096c48.228,-20.479 89.501,-57.858 114.008,-108.707c0.606,-1.257 1.199,-2.517 1.776,-3.773c-14.023,-24.643 -38.093,-38.944 -72.237,-51.061c-38.949,-13.823 -90.393,-24.386 -155.252,-40.752c-93.821,-23.675 -141.437,-72.315 -165.435,-120.22Zm138.776,-99.117c-47.346,11.091 -90.802,37.465 -122.509,76.374c19.467,46.789 62.742,96.125 155.106,119.432c65.778,16.598 117.93,27.394 157.43,41.412c33.021,11.718 57.605,25.879 74.617,46.52c4.479,-14.474 7.407,-29.157 8.858,-43.84c-45.109,-61.305 -102.083,-103.66 -164.32,-147.771c-72.643,-51.486 -99.572,-79.799 -109.182,-92.127Zm216.504,67.411c-0.88,-0.075 -1.765,-0.249 -2.641,-0.527c-58.946,-18.71 -97.433,-18.213 -118.656,-14.894c8.421,6.28 17.726,13.05 28.008,20.337c55.913,39.628 107.549,78.079 150.738,129.036c-3.705,-49.461 -23.807,-96.841 -57.449,-133.952Zm-41.359,-35.628c-8.557,-5.706 -17.625,-10.895 -27.167,-15.494c-17.962,-8.657 -36.513,-14.695 -55.209,-18.265c-20.218,8.406 -32.582,16.172 -39.248,21.05c5.004,4.249 10.671,8.91 17.08,14.005c13.901,-4.922 47.469,-12.585 104.544,-1.296Zm-128.442,-37.656c-6.328,0.125 -12.633,0.518 -18.899,1.176c2.033,2.122 4.418,4.512 7.213,7.189c2.838,-2.352 6.644,-5.175 11.686,-8.365Z" style="fill:#3d3d3d;"/></g><defs><linearGradient id="_Linear1" x1="0" y1="0" x2="1" y2="0" gradientUnits="userSpaceOnUse" gradientTransform="matrix(-49.6272,9.34337,-9.34337,-49.6272,323.398,54.8433)"><stop offset="0" style="stop-color:#0065ff;stop-opacity:1"/><stop offset="1" style="stop-color:#003c99;stop-opacity:1"/></linearGradient><linearGradient id="_Linear2" x1="0" y1="0" x2="1" y2="0" gradientUnits="userSpaceOnUse" gradientTransform="matrix(254.517,122.541,-122.541,254.517,172.401,133.459)"><stop offset="0" style="stop-color:#ff9400;stop-opacity:1"/><stop offset="1" style="stop-color:#ffea00;stop-opacity:1"/></linearGradient><linearGradient id="_Linear3" x1="0" y1="0" x2="1" y2="0" gradientUnits="userSpaceOnUse" gradientTransform="matrix(117.967,-8.61162,8.61162,117.967,166.234,463.575)"><stop offset="0" style="stop-color:#ff9400;stop-opacity:1"/><stop offset="1" style="stop-color:#ffea00;stop-opacity:1"/></linearGradient><linearGradient id="_Linear4" x1="0" y1="0" x2="1" y2="0" gradientUnits="userSpaceOnUse" gradientTransform="matrix(-232.904,-97.6922,97.6922,-232.904,337.55,328.166)"><stop offset="0" style="stop-color:#0065ff;stop-opacity:1"/><stop offset="1" style="stop-color:#003c99;stop-opacity:1"/></linearGradient></defs></svg>