<?xml version="1.0" encoding="UTF-8" standalone="no"?><!DOCTYPE svg PUBLIC "-//W3C//DTD SVG 1.1//EN" "http://www.w3.org/Graphics/SVG/1.1/DTD/svg11.dtd"><svg width="100%" height="100%" viewBox="0 0 2134 805" version="1.1" xmlns="http://www.w3.org/2000/svg" xmlns:xlink="http://www.w3.org/1999/xlink" xml:space="preserve" xmlns:serif="http://www.serif.com/" style="fill-rule:evenodd;clip-rule:evenodd;stroke-linejoin:round;stroke-miterlimit:2;"><g><g><circle cx="517.034" cy="420.833" r="337.995" style="fill:#fff;"/><path d="M500.399,140.921l79.488,-43.024l143.62,65.541l-6.816,24.203l-163.972,-9.025l-52.32,-37.695Z" style="fill:url(#_Linear1);"/><path d="M458.917,97.897l124.501,111.763l92.961,72.171l61.411,51.85l53.252,51.335l38.847,45.36l17.723,30.13l-19.463,58.963l-13.984,19.315l-32.231,-34.214l-95.995,-44.064l-99.469,-30.13l-127.553,-26.201l-69.368,-44.568l-60.96,-42.961l-51.301,-55.135l-18.768,-42.742l51.851,-55.331l79.178,-49.616l69.368,-15.925Z" style="fill:url(#_Linear2);"/><path d="M238.901,609l52.312,16.167l44.383,14.375l52.551,19.632l81.456,11.538l86.41,0l30.457,8.408l14.575,15.415l-62.118,37.553l-47.557,19.904l-63.984,-10.51l-39.239,-19.188l-52.551,-19.35l-37.137,-32.232l-39.939,-31.17l-19.619,-30.542Z" style="fill:url(#_Linear3);"/><path d="M258.52,217.367l18.768,43.443l24.675,35.098l32.932,32.869l35.735,23.122l49.343,33.117l80.426,19.159l62.219,16.658l84.784,27.06l48.74,16.817l64.771,28.728l38.04,39.239l20.117,31.531l-32.932,44.792l-25.225,42.794l-37.406,34.021l-44.575,26.282l-39.238,17.644l-27.741,-14.894l-40.059,-63.053l-46.012,-42.794l-35.396,-33.581l-35.774,-21.021l-58.857,-34.929l-54.654,-38.977l-39.238,-32.599l-37.838,-27.06l-25.224,-35.817l-26.828,-12.096l-15.914,-44.143l24.524,-55.355l37.837,-56.055Z" style="fill:url(#_Linear4);"/><path d="M667.501,107.398c-172.989,-83.372 -381.123,-10.614 -464.495,162.375c-83.372,172.99 -10.614,381.124 162.376,464.496c172.989,83.372 381.123,10.614 464.495,-162.376c83.372,-172.99 10.614,-381.123 -162.376,-464.495Zm-82.209,576.958c-36.599,8.989 -149.81,27.499 -289.557,-40.252c24.027,23.764 52.314,44.01 84.431,59.489c32.928,15.87 67.268,25.469 101.645,29.269c61.163,-20.988 92.591,-40.79 103.481,-48.506Zm-381.41,-292.951c-5.981,63.882 7.948,127.724 38.75,182.837c0.415,0.231 0.826,0.481 1.228,0.752c142.049,95.305 265.298,88.583 316.946,79.642c-32.556,-33.571 -81.064,-70.05 -150.233,-111.517c-95.809,-57.438 -161.545,-108.728 -206.691,-151.714Zm399.685,321.721c-5.498,3.813 -13.807,9.129 -25.364,15.415c9.784,-1.973 19.463,-4.409 29.007,-7.295c-1.114,-2.694 -2.326,-5.398 -3.643,-8.12Zm-353.215,-458.83c-6.037,9.666 -11.608,19.759 -16.67,30.262c-10.312,21.395 -17.976,43.387 -23.12,65.591c43.675,44.829 111.727,100.34 217.52,163.764c85.781,51.426 141.364,96.779 175.551,138.177c1.296,1.166 2.424,2.542 3.326,4.099c14.776,18.545 25.263,36.297 32.268,53.456c67.673,-28.737 125.587,-81.186 159.974,-152.536c0.85,-1.764 1.682,-3.531 2.491,-5.293c-19.676,-34.579 -53.45,-54.646 -101.361,-71.649c-54.651,-19.395 -126.837,-34.217 -217.845,-57.182c-131.647,-33.22 -198.461,-101.47 -232.134,-168.689Zm194.727,-139.078c-66.435,15.562 -127.411,52.57 -171.902,107.166c27.316,65.653 88.038,134.88 217.641,167.583c92.298,23.291 165.476,38.439 220.902,58.109c46.333,16.442 80.829,36.313 104.7,65.275c6.285,-20.309 10.394,-40.912 12.429,-61.514c-63.294,-86.023 -143.239,-145.454 -230.569,-207.349c-101.931,-72.244 -139.717,-111.972 -153.201,-129.27Zm303.792,94.589c-1.235,-0.105 -2.476,-0.349 -3.706,-0.739c-82.71,-26.253 -136.715,-25.557 -166.494,-20.9c11.815,8.813 24.872,18.312 39.3,28.538c78.456,55.605 150.91,109.558 211.511,181.059c-5.198,-69.403 -33.405,-135.884 -80.611,-187.958Zm-58.033,-49.992c-12.007,-8.006 -24.731,-15.288 -38.121,-21.741c-25.204,-12.147 -51.234,-20.62 -77.467,-25.628c-28.369,11.795 -45.718,22.691 -55.073,29.536c7.023,5.962 14.974,12.502 23.968,19.652c19.505,-6.907 66.606,-17.659 146.693,-1.819Zm-180.227,-52.838c-8.879,0.175 -17.726,0.727 -26.519,1.65c2.854,2.978 6.2,6.332 10.121,10.088c3.982,-3.3 9.323,-7.262 16.398,-11.738Z" style="fill:#3d3d3d;"/></g><g><text x="863.678px" y="404.544px" style="font-family:'Solaris';font-size:368.657px;fill:#333;">urna<tspan x="1511.41px 1724.12px 1845.78px 2033.8px " y="404.544px 404.544px 404.544px 404.544px ">ment</tspan></text><g transform="matrix(0.997393,-0.0721647,0.0721647,0.997393,206.882,-67.6002)"><text x="609.3px" y="812.129px" style="font-family:'Solaris';font-size:368.657px;fill:url(#_Linear5);">Ma<tspan x="1051.32px 1191.04px " y="812.129px 812.129px ">ke</tspan>r</text></g><text x="1.949px" y="410.074px" style="font-family:'Solaris';font-size:368.657px;fill:#333;">T</text></g></g><defs><linearGradient id="_Linear1" x1="0" y1="0" x2="1" y2="0" gradientUnits="userSpaceOnUse" gradientTransform="matrix(-69.6356,13.1104,-13.1104,-69.6356,611.012,138.576)"><stop offset="0" style="stop-color:#0065ff;stop-opacity:1"/><stop offset="1" style="stop-color:#003c99;stop-opacity:1"/></linearGradient><linearGradient id="_Linear2" x1="0" y1="0" x2="1" y2="0" gradientUnits="userSpaceOnUse" gradientTransform="matrix(357.131,171.947,-171.947,357.131,399.138,248.887)"><stop offset="0" style="stop-color:#ff9400;stop-opacity:1"/><stop offset="1" style="stop-color:#ffea00;stop-opacity:1"/></linearGradient><linearGradient id="_Linear3" x1="0" y1="0" x2="1" y2="0" gradientUnits="userSpaceOnUse" gradientTransform="matrix(165.529,-12.0836,12.0836,165.529,390.485,712.097)"><stop offset="0" style="stop-color:#ff9400;stop-opacity:1"/><stop offset="1" style="stop-color:#ffea00;stop-opacity:1"/></linearGradient><linearGradient id="_Linear4" x1="0" y1="0" x2="1" y2="0" gradientUnits="userSpaceOnUse" gradientTransform="matrix(-326.805,-137.079,137.079,-326.805,630.87,522.095)"><stop offset="0" style="stop-color:#0065ff;stop-opacity:1"/><stop offset="1" style="stop-color:#003c99;stop-opacity:1"/></linearGradient><linearGradient id="_Linear5" x1="0" y1="0" x2="1" y2="0" gradientUnits="userSpaceOnUse" gradientTransform="matrix(762.008,283.075,-283.075,762.008,663.289,587.065)"><stop offset="0" style="stop-color:#f25e0d;stop-opacity:1"/><stop offset="1" style="stop-color:#e6a91a;stop-opacity:1"/></linearGradient></defs></svg>